<mxfile host="app.diagrams.net" agent="Mozilla/5.0 (Windows NT 10.0; Win64; x64) AppleWebKit/537.36 (KHTML, like Gecko) Chrome/130.0.0.0 Safari/537.36" version="24.8.3">
  <diagram name="PÃ¡gina-1" id="U41GHCBHZY7ctfxst16c">
    <mxGraphModel dx="1195" dy="643" grid="1" gridSize="10" guides="1" tooltips="1" connect="1" arrows="1" fold="1" page="1" pageScale="1" pageWidth="827" pageHeight="1169" math="0" shadow="0">
      <root>
        <mxCell id="0" />
        <mxCell id="1" parent="0" />
        <mxCell id="I_-8PnbG_93-GHIHNR9u-9" style="edgeStyle=orthogonalEdgeStyle;rounded=0;orthogonalLoop=1;jettySize=auto;html=1;" edge="1" parent="1" source="OObnNySzKT1tZAd-TMLK-37">
          <mxGeometry relative="1" as="geometry">
            <mxPoint x="479.9999999999998" y="530" as="targetPoint" />
          </mxGeometry>
        </mxCell>
        <mxCell id="OObnNySzKT1tZAd-TMLK-37" value="&lt;b&gt;GerenciadorPartida&lt;br&gt;Consumer&lt;/b&gt;" style="html=1;whiteSpace=wrap;" parent="1" vertex="1">
          <mxGeometry x="340" y="640" width="120" height="40" as="geometry" />
        </mxCell>
        <mxCell id="OObnNySzKT1tZAd-TMLK-48" value="FRONTEND&lt;br&gt;Pub/Sub" style="text;html=1;align=center;verticalAlign=middle;resizable=0;points=[];autosize=1;strokeColor=none;fillColor=none;" parent="1" vertex="1">
          <mxGeometry x="244" y="480" width="90" height="40" as="geometry" />
        </mxCell>
        <mxCell id="OObnNySzKT1tZAd-TMLK-50" value="" style="endArrow=classic;html=1;rounded=0;" parent="1" edge="1">
          <mxGeometry width="50" height="50" relative="1" as="geometry">
            <mxPoint x="354" y="510" as="sourcePoint" />
            <mxPoint x="414" y="510" as="targetPoint" />
            <Array as="points">
              <mxPoint x="390" y="510" />
            </Array>
          </mxGeometry>
        </mxCell>
        <mxCell id="I_-8PnbG_93-GHIHNR9u-1" value="&lt;b&gt;Broker&lt;/b&gt;" style="html=1;whiteSpace=wrap;" vertex="1" parent="1">
          <mxGeometry x="440" y="480" width="120" height="40" as="geometry" />
        </mxCell>
        <mxCell id="I_-8PnbG_93-GHIHNR9u-2" value="" style="endArrow=classic;html=1;rounded=0;" edge="1" parent="1">
          <mxGeometry width="50" height="50" relative="1" as="geometry">
            <mxPoint x="414" y="490" as="sourcePoint" />
            <mxPoint x="354" y="490" as="targetPoint" />
            <Array as="points">
              <mxPoint x="390" y="490" />
            </Array>
          </mxGeometry>
        </mxCell>
        <mxCell id="I_-8PnbG_93-GHIHNR9u-4" value="RECOMENDADOR&lt;br&gt;Pub/Sub" style="text;html=1;align=center;verticalAlign=middle;resizable=0;points=[];autosize=1;strokeColor=none;fillColor=none;" vertex="1" parent="1">
          <mxGeometry x="650" y="480" width="130" height="40" as="geometry" />
        </mxCell>
        <mxCell id="I_-8PnbG_93-GHIHNR9u-5" value="" style="endArrow=classic;html=1;rounded=0;" edge="1" parent="1">
          <mxGeometry width="50" height="50" relative="1" as="geometry">
            <mxPoint x="580" y="510" as="sourcePoint" />
            <mxPoint x="640" y="510" as="targetPoint" />
            <Array as="points" />
          </mxGeometry>
        </mxCell>
        <mxCell id="I_-8PnbG_93-GHIHNR9u-6" value="" style="endArrow=classic;html=1;rounded=0;" edge="1" parent="1">
          <mxGeometry width="50" height="50" relative="1" as="geometry">
            <mxPoint x="640" y="490" as="sourcePoint" />
            <mxPoint x="580" y="490" as="targetPoint" />
            <Array as="points" />
          </mxGeometry>
        </mxCell>
        <mxCell id="I_-8PnbG_93-GHIHNR9u-10" style="edgeStyle=orthogonalEdgeStyle;rounded=0;orthogonalLoop=1;jettySize=auto;html=1;exitX=0;exitY=0.5;exitDx=0;exitDy=0;" edge="1" parent="1" source="I_-8PnbG_93-GHIHNR9u-8">
          <mxGeometry relative="1" as="geometry">
            <mxPoint x="499.9999999999998" y="530" as="targetPoint" />
          </mxGeometry>
        </mxCell>
        <mxCell id="I_-8PnbG_93-GHIHNR9u-8" value="&lt;b&gt;GerenciadorPartida&lt;br&gt;Producer&lt;/b&gt;" style="html=1;whiteSpace=wrap;" vertex="1" parent="1">
          <mxGeometry x="520" y="640" width="120" height="40" as="geometry" />
        </mxCell>
        <mxCell id="I_-8PnbG_93-GHIHNR9u-26" style="edgeStyle=orthogonalEdgeStyle;rounded=0;orthogonalLoop=1;jettySize=auto;html=1;entryX=0.5;entryY=0;entryDx=0;entryDy=0;" edge="1" parent="1" source="I_-8PnbG_93-GHIHNR9u-11" target="I_-8PnbG_93-GHIHNR9u-17">
          <mxGeometry relative="1" as="geometry" />
        </mxCell>
        <mxCell id="I_-8PnbG_93-GHIHNR9u-32" style="edgeStyle=orthogonalEdgeStyle;rounded=0;orthogonalLoop=1;jettySize=auto;html=1;" edge="1" parent="1" source="I_-8PnbG_93-GHIHNR9u-11" target="I_-8PnbG_93-GHIHNR9u-30">
          <mxGeometry relative="1" as="geometry" />
        </mxCell>
        <mxCell id="I_-8PnbG_93-GHIHNR9u-11" value="&lt;b&gt;PartidaService&lt;/b&gt;" style="html=1;whiteSpace=wrap;" vertex="1" parent="1">
          <mxGeometry x="354" y="740" width="120" height="40" as="geometry" />
        </mxCell>
        <mxCell id="I_-8PnbG_93-GHIHNR9u-25" style="edgeStyle=orthogonalEdgeStyle;rounded=0;orthogonalLoop=1;jettySize=auto;html=1;entryX=0.5;entryY=0;entryDx=0;entryDy=0;" edge="1" parent="1" source="I_-8PnbG_93-GHIHNR9u-12" target="I_-8PnbG_93-GHIHNR9u-18">
          <mxGeometry relative="1" as="geometry" />
        </mxCell>
        <mxCell id="I_-8PnbG_93-GHIHNR9u-29" style="edgeStyle=orthogonalEdgeStyle;rounded=0;orthogonalLoop=1;jettySize=auto;html=1;entryX=0;entryY=0.5;entryDx=0;entryDy=0;" edge="1" parent="1" source="I_-8PnbG_93-GHIHNR9u-12" target="I_-8PnbG_93-GHIHNR9u-28">
          <mxGeometry relative="1" as="geometry" />
        </mxCell>
        <mxCell id="I_-8PnbG_93-GHIHNR9u-12" value="&lt;b&gt;UsuarioService&lt;/b&gt;" style="html=1;whiteSpace=wrap;" vertex="1" parent="1">
          <mxGeometry x="510" y="740" width="120" height="40" as="geometry" />
        </mxCell>
        <mxCell id="I_-8PnbG_93-GHIHNR9u-17" value="&lt;b&gt;Partida&lt;/b&gt;" style="html=1;whiteSpace=wrap;" vertex="1" parent="1">
          <mxGeometry x="354" y="840" width="120" height="40" as="geometry" />
        </mxCell>
        <mxCell id="I_-8PnbG_93-GHIHNR9u-18" value="&lt;b&gt;Usuario&lt;/b&gt;" style="html=1;whiteSpace=wrap;" vertex="1" parent="1">
          <mxGeometry x="510" y="840" width="120" height="40" as="geometry" />
        </mxCell>
        <mxCell id="I_-8PnbG_93-GHIHNR9u-19" value="" style="endArrow=classic;startArrow=classic;html=1;rounded=0;exitX=1;exitY=0;exitDx=0;exitDy=0;" edge="1" parent="1" source="I_-8PnbG_93-GHIHNR9u-17">
          <mxGeometry width="50" height="50" relative="1" as="geometry">
            <mxPoint x="460" y="830" as="sourcePoint" />
            <mxPoint x="510" y="780" as="targetPoint" />
          </mxGeometry>
        </mxCell>
        <mxCell id="I_-8PnbG_93-GHIHNR9u-20" value="" style="endArrow=classic;startArrow=classic;html=1;rounded=0;entryX=0;entryY=1;entryDx=0;entryDy=0;" edge="1" parent="1" target="I_-8PnbG_93-GHIHNR9u-8">
          <mxGeometry width="50" height="50" relative="1" as="geometry">
            <mxPoint x="470" y="740" as="sourcePoint" />
            <mxPoint x="520" y="690" as="targetPoint" />
          </mxGeometry>
        </mxCell>
        <mxCell id="I_-8PnbG_93-GHIHNR9u-21" value="" style="endArrow=classic;startArrow=classic;html=1;rounded=0;exitX=1;exitY=1;exitDx=0;exitDy=0;entryX=0;entryY=0;entryDx=0;entryDy=0;" edge="1" parent="1" source="OObnNySzKT1tZAd-TMLK-37" target="I_-8PnbG_93-GHIHNR9u-12">
          <mxGeometry width="50" height="50" relative="1" as="geometry">
            <mxPoint x="450" y="730" as="sourcePoint" />
            <mxPoint x="500" y="680" as="targetPoint" />
          </mxGeometry>
        </mxCell>
        <mxCell id="I_-8PnbG_93-GHIHNR9u-22" style="edgeStyle=orthogonalEdgeStyle;rounded=0;orthogonalLoop=1;jettySize=auto;html=1;entryX=0.583;entryY=0.028;entryDx=0;entryDy=0;entryPerimeter=0;" edge="1" parent="1" source="I_-8PnbG_93-GHIHNR9u-8" target="I_-8PnbG_93-GHIHNR9u-12">
          <mxGeometry relative="1" as="geometry" />
        </mxCell>
        <mxCell id="I_-8PnbG_93-GHIHNR9u-23" style="edgeStyle=orthogonalEdgeStyle;rounded=0;orthogonalLoop=1;jettySize=auto;html=1;entryX=0.377;entryY=0.045;entryDx=0;entryDy=0;entryPerimeter=0;" edge="1" parent="1" source="OObnNySzKT1tZAd-TMLK-37" target="I_-8PnbG_93-GHIHNR9u-11">
          <mxGeometry relative="1" as="geometry" />
        </mxCell>
        <mxCell id="I_-8PnbG_93-GHIHNR9u-24" value="" style="endArrow=classic;startArrow=classic;html=1;rounded=0;exitX=0;exitY=0;exitDx=0;exitDy=0;entryX=1;entryY=1;entryDx=0;entryDy=0;" edge="1" parent="1" source="I_-8PnbG_93-GHIHNR9u-18" target="I_-8PnbG_93-GHIHNR9u-11">
          <mxGeometry width="50" height="50" relative="1" as="geometry">
            <mxPoint x="484" y="850" as="sourcePoint" />
            <mxPoint x="520" y="790" as="targetPoint" />
          </mxGeometry>
        </mxCell>
        <mxCell id="I_-8PnbG_93-GHIHNR9u-27" value="SQL" style="text;html=1;align=center;verticalAlign=middle;resizable=0;points=[];autosize=1;strokeColor=none;fillColor=none;" vertex="1" parent="1">
          <mxGeometry x="725" y="780" width="50" height="30" as="geometry" />
        </mxCell>
        <mxCell id="I_-8PnbG_93-GHIHNR9u-28" value="&lt;b&gt;UsuarioRepository&lt;/b&gt;" style="html=1;whiteSpace=wrap;" vertex="1" parent="1">
          <mxGeometry x="690" y="740" width="120" height="40" as="geometry" />
        </mxCell>
        <mxCell id="I_-8PnbG_93-GHIHNR9u-30" value="&lt;b&gt;PartidaRepository&lt;/b&gt;" style="html=1;whiteSpace=wrap;" vertex="1" parent="1">
          <mxGeometry x="170" y="740" width="120" height="40" as="geometry" />
        </mxCell>
        <mxCell id="I_-8PnbG_93-GHIHNR9u-31" value="SQL" style="text;html=1;align=center;verticalAlign=middle;resizable=0;points=[];autosize=1;strokeColor=none;fillColor=none;" vertex="1" parent="1">
          <mxGeometry x="205" y="790" width="50" height="30" as="geometry" />
        </mxCell>
      </root>
    </mxGraphModel>
  </diagram>
</mxfile>
